# xmcd CD database file
#
# Track frame offsets:
#	182
#	11790
#	27710
#	40867
#	56072
#	69467
#	86252
#	102552
#	119185
#
# Disc length: 1847 seconds
#
# Revision: 0
# Processed by: cddbd v1.4b42PL1 Copyright (c) Steve Scherf et al.
# Submitted via: CDex 1.40Beta6
#
DISCID=80073509
DTITLE=Katie Trickett - The Next Time
DYEAR=1995
DGENRE=Country
TTITLE0=The Next Time
TTITLE1=Autumn Eyes
TTITLE2=I'll Never Change This Lovin' Feelin'
TTITLE3=When You Were Here
TTITLE4=Playin' Against The Best
TTITLE5=Don't Say Don't
TTITLE6=Lonely Road Home
TTITLE7=She Danced Alone
TTITLE8=Dancin' On The Edge Of A Razor
EXTD=
EXTT0=
EXTT1=
EXTT2=
EXTT3=
EXTT4=
EXTT5=
EXTT6=
EXTT7=
EXTT8=
PLAYORDER=
